  0
SECTION
  2
HEADER
  9
$ANGBASE
  50
0.0
  9
$ANGDIR
  70
  1
  9
$MEASUREMENT
  70
0
  0
ENDSEC
  0
SECTION
  2
TABLES
  0
TABLE
  2
LTYPE
  70
4
  0
LTYPE
  5
40F
  2
CONTINUOUS
  70
0
  3
Solid line
  72
65
  73
0
  40
0.0
  0
LTYPE
  5
410
  2
DASHDOT
 70
0
  3
Dash Dot ____ _ ____ _
 72
65
 73
4
 40
2.0
 49
1.25
 49
-0.25
 49
0.25
 49
-0.25
  0
LTYPE
  5
411
  2
DASHED
 70
0
  3
Dashed __ __ __ __ __
 72
65
 73
2
 40
0.75
 49
0.5
 49
-0.25
  0
LTYPE
  5
43B
  2
DOTTED
 70
0
  3
Dotted .  .  .  .
 72
65
 73
2
 40
0.2
 49
0.0
 49
-0.2
  0
ENDTAB
  0
TABLE
  2
STYLE
  70
4
  0
STYLE
  2
KICAD
  70
0
  40
0
  41
1
  42
1
  50
0
  71
0
  3
isocp.shx
  0
STYLE
  2
KICADB
  70
0
  40
0
  41
1
  42
1
  50
0
  71
0
  3
isocp.shx
  0
STYLE
  2
KICADI
  70
0
  40
0
  41
1
  42
1
  50
15
  71
0
  3
isocp.shx
  0
STYLE
  2
KICADBI
  70
0
  40
0
  41
1
  42
1
  50
15
  71
0
  3
isocp.shx
  0
ENDTAB
  0
TABLE
  2
LAYER
  70
30
  0
LAYER
  2
BLACK
  70
0
  62
7
  6
CONTINUOUS
  0
LAYER
  2
GRAY1
  70
0
  62
251
  6
CONTINUOUS
  0
LAYER
  2
GRAY2
  70
0
  62
8
  6
CONTINUOUS
  0
LAYER
  2
GRAY3
  70
0
  62
9
  6
CONTINUOUS
  0
LAYER
  2
WHITE
  70
0
  62
7
  6
CONTINUOUS
  0
LAYER
  2
LYELLOW
  70
0
  62
51
  6
CONTINUOUS
  0
LAYER
  2
BLUE1
  70
0
  62
178
  6
CONTINUOUS
  0
LAYER
  2
GREEN1
  70
0
  62
98
  6
CONTINUOUS
  0
LAYER
  2
CYAN1
  70
0
  62
138
  6
CONTINUOUS
  0
LAYER
  2
RED1
  70
0
  62
18
  6
CONTINUOUS
  0
LAYER
  2
MAGENTA1
  70
0
  62
228
  6
CONTINUOUS
  0
LAYER
  2
BROWN1
  70
0
  62
58
  6
CONTINUOUS
  0
LAYER
  2
BLUE2
  70
0
  62
5
  6
CONTINUOUS
  0
LAYER
  2
GREEN2
  70
0
  62
3
  6
CONTINUOUS
  0
LAYER
  2
CYAN2
  70
0
  62
4
  6
CONTINUOUS
  0
LAYER
  2
RED2
  70
0
  62
1
  6
CONTINUOUS
  0
LAYER
  2
MAGENTA2
  70
0
  62
6
  6
CONTINUOUS
  0
LAYER
  2
BROWN2
  70
0
  62
54
  6
CONTINUOUS
  0
LAYER
  2
BLUE3
  70
0
  62
171
  6
CONTINUOUS
  0
LAYER
  2
GREEN3
  70
0
  62
91
  6
CONTINUOUS
  0
LAYER
  2
CYAN3
  70
0
  62
131
  6
CONTINUOUS
  0
LAYER
  2
RED3
  70
0
  62
11
  6
CONTINUOUS
  0
LAYER
  2
MAGENTA3
  70
0
  62
221
  6
CONTINUOUS
  0
LAYER
  2
YELLOW3
  70
0
  62
2
  6
CONTINUOUS
  0
LAYER
  2
BLUE4
  70
0
  62
5
  6
CONTINUOUS
  0
LAYER
  2
GREEN4
  70
0
  62
3
  6
CONTINUOUS
  0
LAYER
  2
CYAN4
  70
0
  62
4
  6
CONTINUOUS
  0
LAYER
  2
RED4
  70
0
  62
1
  6
CONTINUOUS
  0
LAYER
  2
MAGENTA4
  70
0
  62
6
  6
CONTINUOUS
  0
LAYER
  2
YELLOW4
  70
0
  62
2
  6
CONTINUOUS
  0
ENDTAB
  0
ENDSEC
  0
SECTION
  2
ENTITIES
0
LINE
8
BLACK
6
CONTINUOUS
10
123.154
20
-102.212
11
123.151
21
-102.223
0
LINE
8
BLACK
6
CONTINUOUS
10
123.151
20
-102.223
11
123.145
21
-102.233
0
LINE
8
BLACK
6
CONTINUOUS
10
123.145
20
-102.233
11
123.138
21
-102.243
0
LINE
8
BLACK
6
CONTINUOUS
10
123.138
20
-102.243
11
123.128
21
-102.25
0
LINE
8
BLACK
6
CONTINUOUS
10
123.128
20
-102.25
11
123.118
21
-102.256
0
LINE
8
BLACK
6
CONTINUOUS
10
123.118
20
-102.256
11
123.107
21
-102.259
0
LINE
8
BLACK
6
CONTINUOUS
10
123.107
20
-102.259
11
123.095
21
-102.26
0
LINE
8
BLACK
6
CONTINUOUS
10
123.095
20
-102.26
11
123.083
21
-102.259
0
LINE
8
BLACK
6
CONTINUOUS
10
123.083
20
-102.259
11
123.072
21
-102.256
0
LINE
8
BLACK
6
CONTINUOUS
10
123.072
20
-102.256
11
123.062
21
-102.25
0
LINE
8
BLACK
6
CONTINUOUS
10
123.062
20
-102.25
11
123.052
21
-102.243
0
LINE
8
BLACK
6
CONTINUOUS
10
123.052
20
-102.243
11
123.045
21
-102.233
0
LINE
8
BLACK
6
CONTINUOUS
10
123.045
20
-102.233
11
123.039
21
-102.223
0
LINE
8
BLACK
6
CONTINUOUS
10
123.039
20
-102.223
11
123.036
21
-102.212
0
LINE
8
BLACK
6
CONTINUOUS
10
123.036
20
-102.212
11
123.035
21
-102.203
0
LINE
8
BLACK
6
CONTINUOUS
10
123.035
20
-102.203
11
123.035
21
-100.247
0
LINE
8
BLACK
6
CONTINUOUS
10
123.035
20
-100.247
11
123.035
21
-100.247
0
LINE
8
BLACK
6
CONTINUOUS
10
123.035
20
-100.247
11
123.035
21
-96.7971
0
LINE
8
BLACK
6
CONTINUOUS
10
123.035
20
-96.7971
11
123.036
21
-96.7882
0
LINE
8
BLACK
6
CONTINUOUS
10
123.036
20
-96.7882
11
123.039
21
-96.7769
0
LINE
8
BLACK
6
CONTINUOUS
10
123.039
20
-96.7769
11
123.045
21
-96.7665
0
LINE
8
BLACK
6
CONTINUOUS
10
123.045
20
-96.7665
11
123.052
21
-96.7574
0
LINE
8
BLACK
6
CONTINUOUS
10
123.052
20
-96.7574
11
123.062
21
-96.7499
0
LINE
8
BLACK
6
CONTINUOUS
10
123.062
20
-96.7499
11
123.072
21
-96.7443
0
LINE
8
BLACK
6
CONTINUOUS
10
123.072
20
-96.7443
11
123.083
21
-96.7409
0
LINE
8
BLACK
6
CONTINUOUS
10
123.083
20
-96.7409
11
123.095
21
-96.7397
0
LINE
8
BLACK
6
CONTINUOUS
10
123.095
20
-96.7397
11
123.107
21
-96.7409
0
LINE
8
BLACK
6
CONTINUOUS
10
123.107
20
-96.7409
11
123.118
21
-96.7443
0
LINE
8
BLACK
6
CONTINUOUS
10
123.118
20
-96.7443
11
123.128
21
-96.7499
0
LINE
8
BLACK
6
CONTINUOUS
10
123.128
20
-96.7499
11
123.138
21
-96.7574
0
LINE
8
BLACK
6
CONTINUOUS
10
123.138
20
-96.7574
11
123.145
21
-96.7665
0
LINE
8
BLACK
6
CONTINUOUS
10
123.145
20
-96.7665
11
123.151
21
-96.7769
0
LINE
8
BLACK
6
CONTINUOUS
10
123.151
20
-96.7769
11
123.154
21
-96.7882
0
LINE
8
BLACK
6
CONTINUOUS
10
123.154
20
-96.7882
11
123.155
21
-96.7971
0
LINE
8
BLACK
6
CONTINUOUS
10
123.155
20
-96.7971
11
123.155
21
-102.203
0
LINE
8
BLACK
6
CONTINUOUS
10
123.155
20
-102.203
11
123.154
21
-102.212
0
LINE
8
BLACK
6
CONTINUOUS
10
133.274
20
-102.212
11
133.271
21
-102.223
0
LINE
8
BLACK
6
CONTINUOUS
10
133.271
20
-102.223
11
133.265
21
-102.233
0
LINE
8
BLACK
6
CONTINUOUS
10
133.265
20
-102.233
11
133.258
21
-102.243
0
LINE
8
BLACK
6
CONTINUOUS
10
133.258
20
-102.243
11
133.248
21
-102.25
0
LINE
8
BLACK
6
CONTINUOUS
10
133.248
20
-102.25
11
133.238
21
-102.256
0
LINE
8
BLACK
6
CONTINUOUS
10
133.238
20
-102.256
11
133.227
21
-102.259
0
LINE
8
BLACK
6
CONTINUOUS
10
133.227
20
-102.259
11
133.215
21
-102.26
0
LINE
8
BLACK
6
CONTINUOUS
10
133.215
20
-102.26
11
133.203
21
-102.259
0
LINE
8
BLACK
6
CONTINUOUS
10
133.203
20
-102.259
11
133.192
21
-102.256
0
LINE
8
BLACK
6
CONTINUOUS
10
133.192
20
-102.256
11
133.182
21
-102.25
0
LINE
8
BLACK
6
CONTINUOUS
10
133.182
20
-102.25
11
133.172
21
-102.243
0
LINE
8
BLACK
6
CONTINUOUS
10
133.172
20
-102.243
11
133.165
21
-102.233
0
LINE
8
BLACK
6
CONTINUOUS
10
133.165
20
-102.233
11
133.159
21
-102.223
0
LINE
8
BLACK
6
CONTINUOUS
10
133.159
20
-102.223
11
133.156
21
-102.212
0
LINE
8
BLACK
6
CONTINUOUS
10
133.156
20
-102.212
11
133.155
21
-102.203
0
LINE
8
BLACK
6
CONTINUOUS
10
133.155
20
-102.203
11
133.155
21
-100.247
0
LINE
8
BLACK
6
CONTINUOUS
10
133.155
20
-100.247
11
133.155
21
-100.247
0
LINE
8
BLACK
6
CONTINUOUS
10
133.155
20
-100.247
11
133.155
21
-98.2971
0
LINE
8
BLACK
6
CONTINUOUS
10
133.155
20
-98.2971
11
133.156
21
-98.2882
0
LINE
8
BLACK
6
CONTINUOUS
10
133.156
20
-98.2882
11
133.159
21
-98.2769
0
LINE
8
BLACK
6
CONTINUOUS
10
133.159
20
-98.2769
11
133.165
21
-98.2665
0
LINE
8
BLACK
6
CONTINUOUS
10
133.165
20
-98.2665
11
133.172
21
-98.2574
0
LINE
8
BLACK
6
CONTINUOUS
10
133.172
20
-98.2574
11
133.182
21
-98.2499
0
LINE
8
BLACK
6
CONTINUOUS
10
133.182
20
-98.2499
11
133.192
21
-98.2443
0
LINE
8
BLACK
6
CONTINUOUS
10
133.192
20
-98.2443
11
133.203
21
-98.2409
0
LINE
8
BLACK
6
CONTINUOUS
10
133.203
20
-98.2409
11
133.215
21
-98.2397
0
LINE
8
BLACK
6
CONTINUOUS
10
133.215
20
-98.2397
11
133.227
21
-98.2409
0
LINE
8
BLACK
6
CONTINUOUS
10
133.227
20
-98.2409
11
133.238
21
-98.2443
0
LINE
8
BLACK
6
CONTINUOUS
10
133.238
20
-98.2443
11
133.248
21
-98.2499
0
LINE
8
BLACK
6
CONTINUOUS
10
133.248
20
-98.2499
11
133.258
21
-98.2574
0
LINE
8
BLACK
6
CONTINUOUS
10
133.258
20
-98.2574
11
133.265
21
-98.2665
0
LINE
8
BLACK
6
CONTINUOUS
10
133.265
20
-98.2665
11
133.271
21
-98.2769
0
LINE
8
BLACK
6
CONTINUOUS
10
133.271
20
-98.2769
11
133.274
21
-98.2882
0
LINE
8
BLACK
6
CONTINUOUS
10
133.274
20
-98.2882
11
133.275
21
-98.2971
0
LINE
8
BLACK
6
CONTINUOUS
10
133.275
20
-98.2971
11
133.275
21
-102.203
0
LINE
8
BLACK
6
CONTINUOUS
10
133.275
20
-102.203
11
133.274
21
-102.212
0
LINE
8
BLACK
6
CONTINUOUS
10
122.722
20
-100.415
11
122.736
21
-100.419
0
LINE
8
BLACK
6
CONTINUOUS
10
122.736
20
-100.419
11
122.749
21
-100.426
0
LINE
8
BLACK
6
CONTINUOUS
10
122.749
20
-100.426
11
122.761
21
-100.435
0
LINE
8
BLACK
6
CONTINUOUS
10
122.761
20
-100.435
11
122.77
21
-100.447
0
LINE
8
BLACK
6
CONTINUOUS
10
122.77
20
-100.447
11
122.777
21
-100.46
0
LINE
8
BLACK
6
CONTINUOUS
10
122.777
20
-100.46
11
122.781
21
-100.474
0
LINE
8
BLACK
6
CONTINUOUS
10
122.781
20
-100.474
11
122.782
21
-100.488
0
LINE
8
BLACK
6
CONTINUOUS
10
122.782
20
-100.488
11
122.782
21
-101.06
0
LINE
8
BLACK
6
CONTINUOUS
10
122.782
20
-101.06
11
122.782
21
-101.061
0
LINE
8
BLACK
6
CONTINUOUS
10
122.782
20
-101.061
11
122.781
21
-101.075
0
LINE
8
BLACK
6
CONTINUOUS
10
122.781
20
-101.075
11
122.776
21
-101.089
0
LINE
8
BLACK
6
CONTINUOUS
10
122.776
20
-101.089
11
122.769
21
-101.102
0
LINE
8
BLACK
6
CONTINUOUS
10
122.769
20
-101.102
11
122.76
21
-101.113
0
LINE
8
BLACK
6
CONTINUOUS
10
122.76
20
-101.113
11
122.748
21
-101.122
0
LINE
8
BLACK
6
CONTINUOUS
10
122.748
20
-101.122
11
122.735
21
-101.129
0
LINE
8
BLACK
6
CONTINUOUS
10
122.735
20
-101.129
11
122.721
21
-101.133
0
LINE
8
BLACK
6
CONTINUOUS
10
122.721
20
-101.133
11
122.707
21
-101.135
0
LINE
8
BLACK
6
CONTINUOUS
10
122.707
20
-101.135
11
122.692
21
-101.133
0
LINE
8
BLACK
6
CONTINUOUS
10
122.692
20
-101.133
11
122.678
21
-101.129
0
LINE
8
BLACK
6
CONTINUOUS
10
122.678
20
-101.129
11
122.665
21
-101.122
0
LINE
8
BLACK
6
CONTINUOUS
10
122.665
20
-101.122
11
122.654
21
-101.112
0
LINE
8
BLACK
6
CONTINUOUS
10
122.654
20
-101.112
11
122.645
21
-101.101
0
LINE
8
BLACK
6
CONTINUOUS
10
122.645
20
-101.101
11
122.638
21
-101.088
0
LINE
8
BLACK
6
CONTINUOUS
10
122.638
20
-101.088
11
122.634
21
-101.074
0
LINE
8
BLACK
6
CONTINUOUS
10
122.634
20
-101.074
11
122.632
21
-101.06
0
LINE
8
BLACK
6
CONTINUOUS
10
122.632
20
-101.06
11
122.632
21
-100.849
0
LINE
8
BLACK
6
CONTINUOUS
10
122.632
20
-100.849
11
121.707
21
-100.849
0
LINE
8
BLACK
6
CONTINUOUS
10
121.707
20
-100.849
11
121.706
21
-100.849
0
LINE
8
BLACK
6
CONTINUOUS
10
121.706
20
-100.849
11
121.706
21
-100.849
0
LINE
8
BLACK
6
CONTINUOUS
10
121.706
20
-100.849
11
121.706
21
-100.849
0
LINE
8
BLACK
6
CONTINUOUS
10
121.706
20
-100.849
11
121.706
21
-100.849
0
LINE
8
BLACK
6
CONTINUOUS
10
121.706
20
-100.849
11
121.699
21
-100.848
0
LINE
8
BLACK
6
CONTINUOUS
10
121.699
20
-100.848
11
121.692
21
-100.847
0
LINE
8
BLACK
6
CONTINUOUS
10
121.692
20
-100.847
11
121.692
21
-100.847
0
LINE
8
BLACK
6
CONTINUOUS
10
121.692
20
-100.847
11
121.692
21
-100.847
0
LINE
8
BLACK
6
CONTINUOUS
10
121.692
20
-100.847
11
121.685
21
-100.845
0
LINE
8
BLACK
6
CONTINUOUS
10
121.685
20
-100.845
11
121.678
21
-100.843
0
LINE
8
BLACK
6
CONTINUOUS
10
121.678
20
-100.843
11
121.678
21
-100.843
0
LINE
8
BLACK
6
CONTINUOUS
10
121.678
20
-100.843
11
121.678
21
-100.843
0
LINE
8
BLACK
6
CONTINUOUS
10
121.678
20
-100.843
11
121.671
21
-100.839
0
LINE
8
BLACK
6
CONTINUOUS
10
121.671
20
-100.839
11
121.665
21
-100.836
0
LINE
8
BLACK
6
CONTINUOUS
10
121.665
20
-100.836
11
121.665
21
-100.836
0
LINE
8
BLACK
6
CONTINUOUS
10
121.665
20
-100.836
11
121.665
21
-100.836
0
LINE
8
BLACK
6
CONTINUOUS
10
121.665
20
-100.836
11
121.659
21
-100.831
0
LINE
8
BLACK
6
CONTINUOUS
10
121.659
20
-100.831
11
121.654
21
-100.826
0
LINE
8
BLACK
6
CONTINUOUS
10
121.654
20
-100.826
11
121.654
21
-100.826
0
LINE
8
BLACK
6
CONTINUOUS
10
121.654
20
-100.826
11
121.654
21
-100.826
0
LINE
8
BLACK
6
CONTINUOUS
10
121.654
20
-100.826
11
121.649
21
-100.821
0
LINE
8
BLACK
6
CONTINUOUS
10
121.649
20
-100.821
11
121.645
21
-100.815
0
LINE
8
BLACK
6
CONTINUOUS
10
121.645
20
-100.815
11
121.645
21
-100.815
0
LINE
8
BLACK
6
CONTINUOUS
10
121.645
20
-100.815
11
121.645
21
-100.815
0
LINE
8
BLACK
6
CONTINUOUS
10
121.645
20
-100.815
11
121.641
21
-100.809
0
LINE
8
BLACK
6
CONTINUOUS
10
121.641
20
-100.809
11
121.638
21
-100.802
0
LINE
8
BLACK
6
CONTINUOUS
10
121.638
20
-100.802
11
121.638
21
-100.802
0
LINE
8
BLACK
6
CONTINUOUS
10
121.638
20
-100.802
11
121.638
21
-100.802
0
LINE
8
BLACK
6
CONTINUOUS
10
121.638
20
-100.802
11
121.636
21
-100.795
0
LINE
8
BLACK
6
CONTINUOUS
10
121.636
20
-100.795
11
121.634
21
-100.788
0
LINE
8
BLACK
6
CONTINUOUS
10
121.634
20
-100.788
11
121.634
21
-100.788
0
LINE
8
BLACK
6
CONTINUOUS
10
121.634
20
-100.788
11
121.634
21
-100.788
0
LINE
8
BLACK
6
CONTINUOUS
10
121.634
20
-100.788
11
121.633
21
-100.781
0
LINE
8
BLACK
6
CONTINUOUS
10
121.633
20
-100.781
11
121.632
21
-100.773
0
LINE
8
BLACK
6
CONTINUOUS
10
121.632
20
-100.773
11
121.632
21
-100.773
0
LINE
8
BLACK
6
CONTINUOUS
10
121.632
20
-100.773
11
121.632
21
-100.773
0
LINE
8
BLACK
6
CONTINUOUS
10
121.632
20
-100.773
11
121.633
21
-100.766
0
LINE
8
BLACK
6
CONTINUOUS
10
121.633
20
-100.766
11
121.634
21
-100.759
0
LINE
8
BLACK
6
CONTINUOUS
10
121.634
20
-100.759
11
121.634
21
-100.759
0
LINE
8
BLACK
6
CONTINUOUS
10
121.634
20
-100.759
11
121.634
21
-100.759
0
LINE
8
BLACK
6
CONTINUOUS
10
121.634
20
-100.759
11
121.636
21
-100.752
0
LINE
8
BLACK
6
CONTINUOUS
10
121.636
20
-100.752
11
121.638
21
-100.745
0
LINE
8
BLACK
6
CONTINUOUS
10
121.638
20
-100.745
11
121.638
21
-100.745
0
LINE
8
BLACK
6
CONTINUOUS
10
121.638
20
-100.745
11
121.638
21
-100.745
0
LINE
8
BLACK
6
CONTINUOUS
10
121.638
20
-100.745
11
121.642
21
-100.738
0
LINE
8
BLACK
6
CONTINUOUS
10
121.642
20
-100.738
11
121.645
21
-100.732
0
LINE
8
BLACK
6
CONTINUOUS
10
121.645
20
-100.732
11
121.645
21
-100.732
0
LINE
8
BLACK
6
CONTINUOUS
10
121.645
20
-100.732
11
121.645
21
-100.732
0
LINE
8
BLACK
6
CONTINUOUS
10
121.645
20
-100.732
11
121.65
21
-100.726
0
LINE
8
BLACK
6
CONTINUOUS
10
121.65
20
-100.726
11
121.654
21
-100.721
0
LINE
8
BLACK
6
CONTINUOUS
10
121.654
20
-100.721
11
121.654
21
-100.721
0
LINE
8
BLACK
6
CONTINUOUS
10
121.654
20
-100.721
11
121.655
21
-100.721
0
LINE
8
BLACK
6
CONTINUOUS
10
121.655
20
-100.721
11
121.66
21
-100.716
0
LINE
8
BLACK
6
CONTINUOUS
10
121.66
20
-100.716
11
121.666
21
-100.711
0
LINE
8
BLACK
6
CONTINUOUS
10
121.666
20
-100.711
11
121.802
21
-100.62
0
LINE
8
BLACK
6
CONTINUOUS
10
121.802
20
-100.62
11
121.884
21
-100.539
0
LINE
8
BLACK
6
CONTINUOUS
10
121.884
20
-100.539
11
121.926
21
-100.455
0
LINE
8
BLACK
6
CONTINUOUS
10
121.926
20
-100.455
11
121.926
21
-100.454
0
LINE
8
BLACK
6
CONTINUOUS
10
121.926
20
-100.454
11
121.934
21
-100.441
0
LINE
8
BLACK
6
CONTINUOUS
10
121.934
20
-100.441
11
121.945
21
-100.431
0
LINE
8
BLACK
6
CONTINUOUS
10
121.945
20
-100.431
11
121.957
21
-100.423
0
LINE
8
BLACK
6
CONTINUOUS
10
121.957
20
-100.423
11
121.97
21
-100.417
0
LINE
8
BLACK
6
CONTINUOUS
10
121.97
20
-100.417
11
121.984
21
-100.414
0
LINE
8
BLACK
6
CONTINUOUS
10
121.984
20
-100.414
11
121.999
21
-100.413
0
LINE
8
BLACK
6
CONTINUOUS
10
121.999
20
-100.413
11
122.013
21
-100.416
0
LINE
8
BLACK
6
CONTINUOUS
10
122.013
20
-100.416
11
122.027
21
-100.421
0
LINE
8
BLACK
6
CONTINUOUS
10
122.027
20
-100.421
11
122.039
21
-100.429
0
LINE
8
BLACK
6
CONTINUOUS
10
122.039
20
-100.429
11
122.05
21
-100.439
0
LINE
8
BLACK
6
CONTINUOUS
10
122.05
20
-100.439
11
122.058
21
-100.451
0
LINE
8
BLACK
6
CONTINUOUS
10
122.058
20
-100.451
11
122.064
21
-100.465
0
LINE
8
BLACK
6
CONTINUOUS
10
122.064
20
-100.465
11
122.068
21
-100.479
0
LINE
8
BLACK
6
CONTINUOUS
10
122.068
20
-100.479
11
122.068
21
-100.494
0
LINE
8
BLACK
6
CONTINUOUS
10
122.068
20
-100.494
11
122.065
21
-100.508
0
LINE
8
BLACK
6
CONTINUOUS
10
122.065
20
-100.508
11
122.06
21
-100.522
0
LINE
8
BLACK
6
CONTINUOUS
10
122.06
20
-100.522
11
122.013
21
-100.617
0
LINE
8
BLACK
6
CONTINUOUS
10
122.013
20
-100.617
11
122.012
21
-100.618
0
LINE
8
BLACK
6
CONTINUOUS
10
122.012
20
-100.618
11
122.01
21
-100.621
0
LINE
8
BLACK
6
CONTINUOUS
10
122.01
20
-100.621
11
122.008
21
-100.625
0
LINE
8
BLACK
6
CONTINUOUS
10
122.008
20
-100.625
11
122.006
21
-100.627
0
LINE
8
BLACK
6
CONTINUOUS
10
122.006
20
-100.627
11
122.004
21
-100.63
0
LINE
8
BLACK
6
CONTINUOUS
10
122.004
20
-100.63
11
122.001
21
-100.633
0
LINE
8
BLACK
6
CONTINUOUS
10
122.001
20
-100.633
11
121.999
21
-100.636
0
LINE
8
BLACK
6
CONTINUOUS
10
121.999
20
-100.636
11
121.936
21
-100.699
0
LINE
8
BLACK
6
CONTINUOUS
10
121.936
20
-100.699
11
122.632
21
-100.699
0
LINE
8
BLACK
6
CONTINUOUS
10
122.632
20
-100.699
11
122.632
21
-100.488
0
LINE
8
BLACK
6
CONTINUOUS
10
122.632
20
-100.488
11
122.632
21
-100.487
0
LINE
8
BLACK
6
CONTINUOUS
10
122.632
20
-100.487
11
122.634
21
-100.473
0
LINE
8
BLACK
6
CONTINUOUS
10
122.634
20
-100.473
11
122.638
21
-100.459
0
LINE
8
BLACK
6
CONTINUOUS
10
122.638
20
-100.459
11
122.645
21
-100.446
0
LINE
8
BLACK
6
CONTINUOUS
10
122.645
20
-100.446
11
122.655
21
-100.435
0
LINE
8
BLACK
6
CONTINUOUS
10
122.655
20
-100.435
11
122.666
21
-100.425
0
LINE
8
BLACK
6
CONTINUOUS
10
122.666
20
-100.425
11
122.679
21
-100.419
0
LINE
8
BLACK
6
CONTINUOUS
10
122.679
20
-100.419
11
122.693
21
-100.414
0
LINE
8
BLACK
6
CONTINUOUS
10
122.693
20
-100.414
11
122.708
21
-100.413
0
LINE
8
BLACK
6
CONTINUOUS
10
122.708
20
-100.413
11
122.722
21
-100.415
0
LINE
8
BLACK
6
CONTINUOUS
10
122.518
20
-99.4131
11
122.52
21
-99.4133
0
LINE
8
BLACK
6
CONTINUOUS
10
122.52
20
-99.4133
11
122.522
21
-99.4133
0
LINE
8
BLACK
6
CONTINUOUS
10
122.522
20
-99.4133
11
122.527
21
-99.4142
0
LINE
8
BLACK
6
CONTINUOUS
10
122.527
20
-99.4142
11
122.532
21
-99.4147
0
LINE
8
BLACK
6
CONTINUOUS
10
122.532
20
-99.4147
11
122.535
21
-99.4154
0
LINE
8
BLACK
6
CONTINUOUS
10
122.535
20
-99.4154
11
122.537
21
-99.4158
0
LINE
8
BLACK
6
CONTINUOUS
10
122.537
20
-99.4158
11
122.542
21
-99.4176
0
LINE
8
BLACK
6
CONTINUOUS
10
122.542
20
-99.4176
11
122.546
21
-99.4192
0
LINE
8
BLACK
6
CONTINUOUS
10
122.546
20
-99.4192
11
122.548
21
-99.4202
0
LINE
8
BLACK
6
CONTINUOUS
10
122.548
20
-99.4202
11
122.55
21
-99.421
0
LINE
8
BLACK
6
CONTINUOUS
10
122.55
20
-99.421
11
122.646
21
-99.4686
0
LINE
8
BLACK
6
CONTINUOUS
10
122.646
20
-99.4686
11
122.647
21
-99.4691
0
LINE
8
BLACK
6
CONTINUOUS
10
122.647
20
-99.4691
11
122.65
21
-99.4714
0
LINE
8
BLACK
6
CONTINUOUS
10
122.65
20
-99.4714
11
122.654
21
-99.4734
0
LINE
8
BLACK
6
CONTINUOUS
10
122.654
20
-99.4734
11
122.656
21
-99.4754
0
LINE
8
BLACK
6
CONTINUOUS
10
122.656
20
-99.4754
11
122.659
21
-99.4771
0
LINE
8
BLACK
6
CONTINUOUS
10
122.659
20
-99.4771
11
122.662
21
-99.48
0
LINE
8
BLACK
6
CONTINUOUS
10
122.662
20
-99.48
11
122.665
21
-99.4827
0
LINE
8
BLACK
6
CONTINUOUS
10
122.665
20
-99.4827
11
122.713
21
-99.5303
0
LINE
8
BLACK
6
CONTINUOUS
10
122.713
20
-99.5303
11
122.714
21
-99.531
0
LINE
8
BLACK
6
CONTINUOUS
10
122.714
20
-99.531
11
122.716
21
-99.5343
0
LINE
8
BLACK
6
CONTINUOUS
10
122.716
20
-99.5343
11
122.719
21
-99.5374
0
LINE
8
BLACK
6
CONTINUOUS
10
122.719
20
-99.5374
11
122.721
21
-99.54
0
LINE
8
BLACK
6
CONTINUOUS
10
122.721
20
-99.54
11
122.723
21
-99.5425
0
LINE
8
BLACK
6
CONTINUOUS
10
122.723
20
-99.5425
11
122.725
21
-99.5462
0
LINE
8
BLACK
6
CONTINUOUS
10
122.725
20
-99.5462
11
122.727
21
-99.5498
0
LINE
8
BLACK
6
CONTINUOUS
10
122.727
20
-99.5498
11
122.774
21
-99.645
0
LINE
8
BLACK
6
CONTINUOUS
10
122.774
20
-99.645
11
122.775
21
-99.646
0
LINE
8
BLACK
6
CONTINUOUS
10
122.775
20
-99.646
11
122.776
21
-99.648
0
LINE
8
BLACK
6
CONTINUOUS
10
122.776
20
-99.648
11
122.777
21
-99.65
0
LINE
8
BLACK
6
CONTINUOUS
10
122.777
20
-99.65
11
122.778
21
-99.6549
0
LINE
8
BLACK
6
CONTINUOUS
10
122.778
20
-99.6549
11
122.78
21
-99.6597
0
LINE
8
BLACK
6
CONTINUOUS
10
122.78
20
-99.6597
11
122.78
21
-99.6619
0
LINE
8
BLACK
6
CONTINUOUS
10
122.78
20
-99.6619
11
122.781
21
-99.664
0
LINE
8
BLACK
6
CONTINUOUS
10
122.781
20
-99.664
11
122.781
21
-99.6691
0
LINE
8
BLACK
6
CONTINUOUS
10
122.781
20
-99.6691
11
122.782
21
-99.6742
0
LINE
8
BLACK
6
CONTINUOUS
10
122.782
20
-99.6742
11
122.782
21
-99.6764
0
LINE
8
BLACK
6
CONTINUOUS
10
122.782
20
-99.6764
11
122.782
21
-99.6786
0
LINE
8
BLACK
6
CONTINUOUS
10
122.782
20
-99.6786
11
122.782
21
-99.869
0
LINE
8
BLACK
6
CONTINUOUS
10
122.782
20
-99.869
11
122.782
21
-99.8701
0
LINE
8
BLACK
6
CONTINUOUS
10
122.782
20
-99.8701
11
122.782
21
-99.8723
0
LINE
8
BLACK
6
CONTINUOUS
10
122.782
20
-99.8723
11
122.782
21
-99.8745
0
LINE
8
BLACK
6
CONTINUOUS
10
122.782
20
-99.8745
11
122.781
21
-99.8796
0
LINE
8
BLACK
6
CONTINUOUS
10
122.781
20
-99.8796
11
122.781
21
-99.8846
0
LINE
8
BLACK
6
CONTINUOUS
10
122.781
20
-99.8846
11
122.78
21
-99.8867
0
LINE
8
BLACK
6
CONTINUOUS
10
122.78
20
-99.8867
11
122.78
21
-99.8889
0
LINE
8
BLACK
6
CONTINUOUS
10
122.78
20
-99.8889
11
122.778
21
-99.8937
0
LINE
8
BLACK
6
CONTINUOUS
10
122.778
20
-99.8937
11
122.776
21
-99.8986
0
LINE
8
BLACK
6
CONTINUOUS
10
122.776
20
-99.8986
11
122.775
21
-99.9005
0
LINE
8
BLACK
6
CONTINUOUS
10
122.775
20
-99.9005
11
122.774
21
-99.9026
0
LINE
8
BLACK
6
CONTINUOUS
10
122.774
20
-99.9026
11
122.727
21
-99.9978
0
LINE
8
BLACK
6
CONTINUOUS
10
122.727
20
-99.9978
11
122.726
21
-99.9988
0
LINE
8
BLACK
6
CONTINUOUS
10
122.726
20
-99.9988
11
122.724
21
-100.002
0
LINE
8
BLACK
6
CONTINUOUS
10
122.724
20
-100.002
11
122.722
21
-100.006
0
LINE
8
BLACK
6
CONTINUOUS
10
122.722
20
-100.006
11
122.72
21
-100.008
0
LINE
8
BLACK
6
CONTINUOUS
10
122.72
20
-100.008
11
122.718
21
-100.011
0
LINE
8
BLACK
6
CONTINUOUS
10
122.718
20
-100.011
11
122.715
21
-100.014
0
LINE
8
BLACK
6
CONTINUOUS
10
122.715
20
-100.014
11
122.713
21
-100.017
0
LINE
8
BLACK
6
CONTINUOUS
10
122.713
20
-100.017
11
122.665
21
-100.065
0
LINE
8
BLACK
6
CONTINUOUS
10
122.665
20
-100.065
11
122.664
21
-100.066
0
LINE
8
BLACK
6
CONTINUOUS
10
122.664
20
-100.066
11
122.661
21
-100.068
0
LINE
8
BLACK
6
CONTINUOUS
10
122.661
20
-100.068
11
122.658
21
-100.071
0
LINE
8
BLACK
6
CONTINUOUS
10
122.658
20
-100.071
11
122.655
21
-100.073
0
LINE
8
BLACK
6
CONTINUOUS
10
122.655
20
-100.073
11
122.653
21
-100.075
0
LINE
8
BLACK
6
CONTINUOUS
10
122.653
20
-100.075
11
122.649
21
-100.077
0
LINE
8
BLACK
6
CONTINUOUS
10
122.649
20
-100.077
11
122.646
21
-100.079
0
LINE
8
BLACK
6
CONTINUOUS
10
122.646
20
-100.079
11
122.55
21
-100.127
0
LINE
8
BLACK
6
CONTINUOUS
10
122.55
20
-100.127
11
122.55
21
-100.127
0
LINE
8
BLACK
6
CONTINUOUS
10
122.55
20
-100.127
11
122.547
21
-100.128
0
LINE
8
BLACK
6
CONTINUOUS
10
122.547
20
-100.128
11
122.545
21
-100.129
0
LINE
8
BLACK
6
CONTINUOUS
10
122.545
20
-100.129
11
122.541
21
-100.13
0
LINE
8
BLACK
6
CONTINUOUS
10
122.541
20
-100.13
11
122.536
21
-100.132
0
LINE
8
BLACK
6
CONTINUOUS
10
122.536
20
-100.132
11
122.534
21
-100.132
0
LINE
8
BLACK
6
CONTINUOUS
10
122.534
20
-100.132
11
122.531
21
-100.133
0
LINE
8
BLACK
6
CONTINUOUS
10
122.531
20
-100.133
11
122.526
21
-100.134
0
LINE
8
BLACK
6
CONTINUOUS
10
122.526
20
-100.134
11
122.521
21
-100.134
0
LINE
8
BLACK
6
CONTINUOUS
10
122.521
20
-100.134
11
122.519
21
-100.134
0
LINE
8
BLACK
6
CONTINUOUS
10
122.519
20
-100.134
11
122.517
21
-100.135
0
LINE
8
BLACK
6
CONTINUOUS
10
122.517
20
-100.135
11
121.707
21
-100.135
0
LINE
8
BLACK
6
CONTINUOUS
10
121.707
20
-100.135
11
121.706
21
-100.135
0
LINE
8
BLACK
6
CONTINUOUS
10
121.706
20
-100.135
11
121.692
21
-100.133
0
LINE
8
BLACK
6
CONTINUOUS
10
121.692
20
-100.133
11
121.678
21
-100.128
0
LINE
8
BLACK
6
CONTINUOUS
10
121.678
20
-100.128
11
121.665
21
-100.121
0
LINE
8
BLACK
6
CONTINUOUS
10
121.665
20
-100.121
11
121.654
21
-100.112
0
LINE
8
BLACK
6
CONTINUOUS
10
121.654
20
-100.112
11
121.645
21
-100.101
0
LINE
8
BLACK
6
CONTINUOUS
10
121.645
20
-100.101
11
121.638
21
-100.088
0
LINE
8
BLACK
6
CONTINUOUS
10
121.638
20
-100.088
11
121.634
21
-100.074
0
LINE
8
BLACK
6
CONTINUOUS
10
121.634
20
-100.074
11
121.632
21
-100.059
0
LINE
8
BLACK
6
CONTINUOUS
10
121.632
20
-100.059
11
121.634
21
-100.044
0
LINE
8
BLACK
6
CONTINUOUS
10
121.634
20
-100.044
11
121.638
21
-100.03
0
LINE
8
BLACK
6
CONTINUOUS
10
121.638
20
-100.03
11
121.645
21
-100.018
0
LINE
8
BLACK
6
CONTINUOUS
10
121.645
20
-100.018
11
121.655
21
-100.006
0
LINE
8
BLACK
6
CONTINUOUS
10
121.655
20
-100.006
11
121.666
21
-99.9971
0
LINE
8
BLACK
6
CONTINUOUS
10
121.666
20
-99.9971
11
121.679
21
-99.9902
0
LINE
8
BLACK
6
CONTINUOUS
10
121.679
20
-99.9902
11
121.693
21
-99.986
0
LINE
8
BLACK
6
CONTINUOUS
10
121.693
20
-99.986
11
121.707
21
-99.9845
0
LINE
8
BLACK
6
CONTINUOUS
10
121.707
20
-99.9845
11
122.499
21
-99.9845
0
LINE
8
BLACK
6
CONTINUOUS
10
122.499
20
-99.9845
11
122.568
21
-99.9503
0
LINE
8
BLACK
6
CONTINUOUS
10
122.568
20
-99.9503
11
122.598
21
-99.9199
0
LINE
8
BLACK
6
CONTINUOUS
10
122.598
20
-99.9199
11
122.632
21
-99.8513
0
LINE
8
BLACK
6
CONTINUOUS
10
122.632
20
-99.8513
11
122.632
21
-99.6963
0
LINE
8
BLACK
6
CONTINUOUS
10
122.632
20
-99.6963
11
122.598
21
-99.6278
0
LINE
8
BLACK
6
CONTINUOUS
10
122.598
20
-99.6278
11
122.568
21
-99.5974
0
LINE
8
BLACK
6
CONTINUOUS
10
122.568
20
-99.5974
11
122.499
21
-99.5631
0
LINE
8
BLACK
6
CONTINUOUS
10
122.499
20
-99.5631
11
121.707
21
-99.5631
0
LINE
8
BLACK
6
CONTINUOUS
10
121.707
20
-99.5631
11
121.706
21
-99.5631
0
LINE
8
BLACK
6
CONTINUOUS
10
121.706
20
-99.5631
11
121.692
21
-99.5615
0
LINE
8
BLACK
6
CONTINUOUS
10
121.692
20
-99.5615
11
121.678
21
-99.557
0
LINE
8
BLACK
6
CONTINUOUS
10
121.678
20
-99.557
11
121.665
21
-99.55
0
LINE
8
BLACK
6
CONTINUOUS
10
121.665
20
-99.55
11
121.654
21
-99.5406
0
LINE
8
BLACK
6
CONTINUOUS
10
121.654
20
-99.5406
11
121.645
21
-99.5292
0
LINE
8
BLACK
6
CONTINUOUS
10
121.645
20
-99.5292
11
121.638
21
-99.5162
0
LINE
8
BLACK
6
CONTINUOUS
10
121.638
20
-99.5162
11
121.634
21
-99.5021
0
LINE
8
BLACK
6
CONTINUOUS
10
121.634
20
-99.5021
11
121.632
21
-99.4876
0
LINE
8
BLACK
6
CONTINUOUS
10
121.632
20
-99.4876
11
121.634
21
-99.473
0
LINE
8
BLACK
6
CONTINUOUS
10
121.634
20
-99.473
11
121.638
21
-99.459
0
LINE
8
BLACK
6
CONTINUOUS
10
121.638
20
-99.459
11
121.645
21
-99.4462
0
LINE
8
BLACK
6
CONTINUOUS
10
121.645
20
-99.4462
11
121.655
21
-99.4349
0
LINE
8
BLACK
6
CONTINUOUS
10
121.655
20
-99.4349
11
121.666
21
-99.4256
0
LINE
8
BLACK
6
CONTINUOUS
10
121.666
20
-99.4256
11
121.679
21
-99.4188
0
LINE
8
BLACK
6
CONTINUOUS
10
121.679
20
-99.4188
11
121.693
21
-99.4145
0
LINE
8
BLACK
6
CONTINUOUS
10
121.693
20
-99.4145
11
121.707
21
-99.4131
0
LINE
8
BLACK
6
CONTINUOUS
10
121.707
20
-99.4131
11
122.517
21
-99.4131
0
LINE
8
BLACK
6
CONTINUOUS
10
122.517
20
-99.4131
11
122.518
21
-99.4131
  0
ENDSEC
  0
EOF
